<?xml version="1.0" encoding="utf-8"?>
<!-- Generator: Adobe Illustrator 24.3.0, SVG Export Plug-In . SVG Version: 6.00 Build 0)  -->
<svg version="1.1" id="Layer_1" xmlns="http://www.w3.org/2000/svg" xmlns:xlink="http://www.w3.org/1999/xlink" x="0px" y="0px"
	 viewBox="0 0 735.71 658.31" style="enable-background:new 0 0 735.71 658.31;" xml:space="preserve">
<style type="text/css">
	.st0{opacity:0.55;}
	.st1{opacity:0.44;}
	.st2{opacity:0.39;fill:none;stroke:#000000;stroke-width:9;stroke-miterlimit:10;}
	.st3{opacity:0.39;}
	.st4{opacity:0.32;}
	.st5{opacity:0.35;}
	.st6{opacity:0.38;}
	.st7{fill:#FFFFFF;}
	.st8{fill:none;}
	.st9{font-family:'BeatsterDemoRegular';}
	.st10{font-size:172px;}
</style>
<path class="st0" d="M1355,397.18c0,114.53-92.84,206.87-207.37,206.87s-203.96-92.84-203.96-207.37s92.69-211.61,207.22-211.61
	c115.16,0,187.03,85.37,159.94,184.04l7.35,11.61c34.44-123.83-51.83-208.34-167.15-208.34c-125.26,0-226.63,99.04-226.63,224.29
	s97.81,226.79,223.06,226.79s226.79-101.04,226.79-226.29H1355z"/>
<path class="st1" d="M1168.27,491.86l-5.87-4.03c56.96-43.31,108.19-69.21,141.13-79.27c35.99-10.99,58.32-11.63,59.25-11.66
	l0.31,13l-0.15-6.5l0.16,6.5c-0.21,0.01-21.91,0.68-56.36,11.27C1274.93,430.94,1223.45,449.9,1168.27,491.86z"/>
<path class="st1" d="M1215.35,496.85l-3.06-3.29c32.36-16.7,65.59-26.34,87.25-28.03c23.67-1.85,48.01-0.69,48.58-0.58l-1.59,8.05
	l0.79-4.02l-0.79,4.02c-0.13-0.03-24.09-1.07-46.75,0.74C1278.87,475.42,1247.17,480.68,1215.35,496.85z"/>
<path class="st2" d="M968.55,509.87c0,0,182.81-68.55,345.51,22.85"/>
<path class="st2" d="M947.83,468.4c0,0,122.64-51.31,264.46-9.28"/>
<path class="st2" d="M936.37,410.46c0,0,152.75-41.32,305.5,31.38"/>
<path class="st3" d="M1248.06,584.79c-72.69-37.44-139.86-46.33-183.41-48.46c-47.25-2.3-77.68,4.34-77.98,4.41l-1.97-8.78
	c1.27-0.29,31.67-6.95,80.03-4.63c44.52,2.14,113.19,13.71,187.46,51.96L1248.06,584.79z"/>
<path class="st4" d="M1318.19,380.72c0,0-98.68-27.47-85.13-164.07c0,0,38.7,14.7,56.11,61.91c0,0-19.5-29.8-47.29-44.89
	c0,22.83-11.53,78.17,68.96,135.44C1318.19,370.66,1318.19,380.72,1318.19,380.72z"/>
<path class="st5" d="M1233.05,216.65c-73.14,49.92-38.79,143.47-22.44,160.2c17.41-17.03,24.38-40.63,24.38-40.63
	s-15.99,17.8-22.7,21.67c-6.32-13.54-31.48-85.13,22.7-130.02C1237.31,224.39,1233.05,216.65,1233.05,216.65z"/>
<path class="st6" d="M1202.65,216.65c0,0-54.76,0-64.56,59.97c11.25-2.02,45.83-4.04,64.56-46.98c0,0-26.23,9.8-34.3,18.73
	C1174.98,237.71,1180.74,229.02,1202.65,216.65z"/>
<path d="M1189.39,209.46c0,0-24.21,14.41-46.98-2.02c11.24-7.78,23.06-15.85,48.71-8.65
	C1186.79,202.26,1183.91,204.27,1189.39,209.46z"/>
<g>
	<path d="M1191.29,307.42c0.5-2.68,1.1-5.31,1.77-7.88c-45.36,13.21-78.65,55.03-78.94,104.53c2.38,0.25,4.71,0.59,7,1.03
		c0-0.13,0-0.26,0-0.39C1121.11,359.47,1150.56,320.99,1191.29,307.42z"/>
	<path d="M1320.23,353.14c-0.68,3.7-1.53,7.31-2.53,10.82c5.44,12.5,8.46,26.28,8.46,40.75c0,1.12-0.02,2.24-0.06,3.36
		c2.31-0.64,4.66-1.19,7.04-1.65c0.01-0.57,0.02-1.13,0.02-1.7C1333.16,386.08,1328.48,368.52,1320.23,353.14z"/>
</g>
<g>
	<g>
		<g>
			<path class="st7" d="M421.17,59.87c0,0-54.76,0-64.56,59.97c11.25-2.02,45.83-4.04,64.56-46.98c0,0-26.23,9.8-34.3,18.73
				C393.5,80.93,399.26,72.25,421.17,59.87z"/>
			<path class="st7" d="M407.91,52.69c0,0-24.21,14.41-46.98-2.02c11.24-7.78,23.06-15.85,48.71-8.65
				C405.31,45.48,402.43,47.5,407.91,52.69z"/>
			<path class="st7" d="M581.31,240.4l-0.01-0.28c-0.23,0.01-1.79,0.05-4.56,0.28h-3.22c0,0.1,0,0.21,0,0.31
				c-5.07,0.54-12.48,1.55-21.91,3.48c-0.51-14.99-4.04-29.22-10-42.11C560.67,90.28,477.96,15.61,369.56,15.61
				c-125.25,0-226.63,99.04-226.63,224.29S240.74,466.7,365.99,466.7S592.78,365.66,592.78,240.4H581.31z M539.09,214.54
				c3.39,9.81,5.31,20.29,5.54,31.18c-6.74,1.55-14.3,3.53-22.59,6.06c-16.74,5.11-38.21,14.32-62.74,27.82
				c-41.21-19.21-82.3-30.13-119.58-36c1.77-42.22,29.19-77.9,67.04-91.87c1.33,32.01,14.13,59.93,22.36,68.35
				c17.41-17.03,24.38-40.63,24.38-40.63s-15.99,17.8-22.7,21.67c-6.21-13.29-30.54-82.49,19.77-127.49
				c-0.43,9.17-0.32,17.79,0.24,25.91c-3.31,5.6-10.87,20.64-12.71,43.8c4.78-13.62,7.41-23.99,13.73-33.08
				c11.51,93.24,84.88,113.69,84.88,113.69C537.58,220.78,538.37,217.65,539.09,214.54z M162.19,239.9
				c0-114.53,92.69-211.61,207.22-211.61c115.16,0,187.03,85.37,159.94,184.04C448.86,155.07,460.4,99.73,460.4,76.9
				c27.79,15.09,47.29,44.89,47.29,44.89c-17.41-47.21-56.11-61.91-56.11-61.91c-33.49,22.86-44.44,54.86-44.9,84.46
				c-41.4,14.22-71.68,52.59-73.9,98.22c-31.15-4.45-59.41-5.43-82.51-4.93c-42.01,0.91-73.53,6.58-87.93,9.7
				C162.25,244.85,162.19,242.38,162.19,239.9z M162.82,256.43c13.29-2.92,45.28-8.9,87.64-9.82
				c49.83-1.08,124.04,4.88,199.16,38.45c-6.54,3.78-13.28,7.85-20.17,12.21c-73.05-21.08-140.68-17.39-184.75-10.49
				c-34.97,5.47-60.56,13.57-72.54,17.84C167.28,289.26,164.09,273.13,162.82,256.43z M175.07,313.15
				c11.63-4.12,37.09-12.19,71.3-17.53c41.57-6.48,104.53-10.04,172.95,8.18c-10.4,6.85-21.13,14.35-32.09,22.5
				c-28.69-2.97-58.46-3.17-88.82-0.54c-52.81,4.57-93.2,16.55-107.4,21.22C184.74,336.29,179.4,324.98,175.07,313.15z
				 M366.15,447.28c-59.53,0-112.25-25.1-149.18-65.27c13.04-1.78,36.23-3.92,66.2-2.45c42.29,2.07,106.84,10.52,177.09,45.27
				C432.01,439.17,400.04,447.28,366.15,447.28z M467.57,420.92c-73.06-36.97-140.43-48.27-184.32-50.38
				c-35.81-1.72-61.75,1.49-73.33,3.39c-5.02-6.07-9.71-12.44-14.03-19.08c15.3-4.91,53.62-15.83,103.31-20.13
				c57.86-5,142.91-1.72,223.78,41.11C507.32,393.87,488.57,409.17,467.57,420.92z M528.84,368.77
				c-26.8-14.39-55.66-25.4-86.15-32.91c28.77-12.9,56.64-17.38,75.62-18.89c15.91-1.27,32.44-1.14,40.93-0.93
				C551.72,335.18,541.42,352.92,528.84,368.77z M562.22,307.97c-8.16-0.29-26.35-0.6-44.16,0.79
				c-20.54,1.6-51.48,10.35-82.21,25.49c-8.28-1.88-16.68-3.52-25.19-4.89c-4.47-0.72-8.97-1.36-13.5-1.94
				c10.91-7.81,21.62-14.72,32.02-20.87c0.11,0.03,0.23,0.06,0.34,0.1l0.11-0.36c38.27-22.57,72.26-34.72,95.61-41.9
				c21.77-6.69,38.44-9.42,47.82-10.53C571.87,272.71,568.14,290.85,562.22,307.97z"/>
			<path class="st7" d="M421.17,59.87c0,0-54.76,0-64.56,59.97c11.25-2.02,45.83-4.04,64.56-46.98c0,0-26.23,9.8-34.3,18.73
				C393.5,80.93,399.26,72.25,421.17,59.87z"/>
			<path class="st7" d="M407.91,52.69c0,0-24.21,14.41-46.98-2.02c11.24-7.78,23.06-15.85,48.71-8.65
				C405.31,45.48,402.43,47.5,407.91,52.69z"/>
			<path class="st7" d="M581.31,240.4l-0.01-0.28c-0.23,0.01-1.79,0.05-4.56,0.28h-3.22c0,0.1,0,0.21,0,0.31
				c-5.07,0.54-12.48,1.55-21.91,3.48c-0.51-14.99-4.04-29.22-10-42.11C560.67,90.28,477.96,15.61,369.56,15.61
				c-125.25,0-226.63,99.04-226.63,224.29S240.74,466.7,365.99,466.7S592.78,365.66,592.78,240.4H581.31z M539.09,214.54
				c3.39,9.81,5.31,20.29,5.54,31.18c-6.74,1.55-14.3,3.53-22.59,6.06c-16.74,5.11-38.21,14.32-62.74,27.82
				c-41.21-19.21-82.3-30.13-119.58-36c1.77-42.22,29.19-77.9,67.04-91.87c1.33,32.01,14.13,59.93,22.36,68.35
				c17.41-17.03,24.38-40.63,24.38-40.63s-15.99,17.8-22.7,21.67c-6.21-13.29-30.54-82.49,19.77-127.49
				c-0.43,9.17-0.32,17.79,0.24,25.91c-3.31,5.6-10.87,20.64-12.71,43.8c4.78-13.62,7.41-23.99,13.73-33.08
				c11.51,93.24,84.88,113.69,84.88,113.69C537.58,220.78,538.37,217.65,539.09,214.54z M162.19,239.9
				c0-114.53,92.69-211.61,207.22-211.61c115.16,0,187.03,85.37,159.94,184.04C448.86,155.07,460.4,99.73,460.4,76.9
				c27.79,15.09,47.29,44.89,47.29,44.89c-17.41-47.21-56.11-61.91-56.11-61.91c-33.49,22.86-44.44,54.86-44.9,84.46
				c-41.4,14.22-71.68,52.59-73.9,98.22c-31.15-4.45-59.41-5.43-82.51-4.93c-42.01,0.91-73.53,6.58-87.93,9.7
				C162.25,244.85,162.19,242.38,162.19,239.9z M162.82,256.43c13.29-2.92,45.28-8.9,87.64-9.82
				c49.83-1.08,124.04,4.88,199.16,38.45c-6.54,3.78-13.28,7.85-20.17,12.21c-73.05-21.08-140.68-17.39-184.75-10.49
				c-34.97,5.47-60.56,13.57-72.54,17.84C167.28,289.26,164.09,273.13,162.82,256.43z M175.07,313.15
				c11.63-4.12,37.09-12.19,71.3-17.53c41.57-6.48,104.53-10.04,172.95,8.18c-10.4,6.85-21.13,14.35-32.09,22.5
				c-28.69-2.97-58.46-3.17-88.82-0.54c-52.81,4.57-93.2,16.55-107.4,21.22C184.74,336.29,179.4,324.98,175.07,313.15z
				 M366.15,447.28c-59.53,0-112.25-25.1-149.18-65.27c13.04-1.78,36.23-3.92,66.2-2.45c42.29,2.07,106.84,10.52,177.09,45.27
				C432.01,439.17,400.04,447.28,366.15,447.28z M467.57,420.92c-73.06-36.97-140.43-48.27-184.32-50.38
				c-35.81-1.72-61.75,1.49-73.33,3.39c-5.02-6.07-9.71-12.44-14.03-19.08c15.3-4.91,53.62-15.83,103.31-20.13
				c57.86-5,142.91-1.72,223.78,41.11C507.32,393.87,488.57,409.17,467.57,420.92z M528.84,368.77
				c-26.8-14.39-55.66-25.4-86.15-32.91c28.77-12.9,56.64-17.38,75.62-18.89c15.91-1.27,32.44-1.14,40.93-0.93
				C551.72,335.18,541.42,352.92,528.84,368.77z M562.22,307.97c-8.16-0.29-26.35-0.6-44.16,0.79
				c-20.54,1.6-51.48,10.35-82.21,25.49c-8.28-1.88-16.68-3.52-25.19-4.89c-4.47-0.72-8.97-1.36-13.5-1.94
				c10.91-7.81,21.62-14.72,32.02-20.87c0.11,0.03,0.23,0.06,0.34,0.1l0.11-0.36c38.27-22.57,72.26-34.72,95.61-41.9
				c21.77-6.69,38.44-9.42,47.82-10.53C571.87,272.71,568.14,290.85,562.22,307.97z"/>
		</g>
		<rect x="-83.15" y="518.85" class="st8" width="902.01" height="250.34"/>
		<text transform="matrix(1 0 0 1 -2.7952 638.9088)" class="st7 st9 st10">Vem da Roça</text>
	</g>
	<g>
		<path class="st7" d="M608.78,616.02c-0.88,1.47-1.77,2.97-2.11,4.65s-0.01,3.59,1.25,4.75c1.47,1.35,3.73,1.33,5.5,2.25
			c3.77,1.96,3.92,7.86,1.01,10.96c-2.9,3.1-7.64,3.78-11.84,3.12"/>
		<g>
			<path class="st7" d="M604.89,613.75c-1.25,2.09-2.38,4.25-2.7,6.69c-0.37,2.75,0.24,5.48,2.07,7.63
				c1.52,1.78,3.65,2.57,5.84,3.18c0.37,0.1,0.73,0.22,1.09,0.33c0.48,0.18,0.47,0.17-0.04-0.02c0.17,0.09,0.34,0.19,0.5,0.3
				c-0.52-0.43-0.6-0.48-0.24-0.17c0.07,0.07,0.13,0.13,0.2,0.2c0.58,0.49-0.58-0.79,0.12,0.22c0.46,0.66-0.2-0.94,0.04,0.1
				c0.03,0.13,0.15,0.94,0.23,0.98c-0.09-0.71-0.11-0.82-0.07-0.32c0.01,0.15,0.01,0.3,0.01,0.44c0,0.15,0,0.3-0.01,0.45
				c-0.04,0.5-0.02,0.4,0.06-0.31c0.01,0-0.26,1.08-0.28,1.16c-0.19,0.84,0.46-0.77,0.01,0.03c-0.07,0.13-0.46,1.03-0.61,1.02
				c0.38-0.47,0.46-0.59,0.24-0.33c-0.11,0.13-0.23,0.26-0.36,0.38c-0.18,0.17-0.36,0.34-0.55,0.5c0.43-0.32,0.44-0.34,0.03-0.05
				c-0.32,0.19-0.63,0.37-0.95,0.55c-0.46,0.22-0.44,0.22,0.07,0c-0.23,0.09-0.46,0.17-0.7,0.25c-0.36,0.11-0.72,0.21-1.08,0.3
				c-0.24,0.05-1.8,0.22-0.67,0.14c-0.38,0.03-0.76,0.06-1.14,0.07c-0.51,0.02-1.02,0.01-1.52-0.02c-0.22-0.01-1.84-0.21-0.68-0.04
				c-2.32-0.34-4.95,0.57-5.54,3.14c-0.49,2.13,0.65,5.17,3.14,5.54c4.6,0.67,9.59,0.48,13.61-2.16c3.72-2.44,6.16-6.54,5.93-11.07
				c-0.25-4.86-3.05-8.62-7.72-10.09c-0.84-0.26-1.72-0.42-2.53-0.76c0.51,0.21,0.54,0.2,0.09-0.03c0.41,0.35,0.43,0.35,0.07,0
				c0.33,0.44,0.36,0.44,0.1,0.02c0.21,0.52,0.24,0.54,0.09,0.05c0.05,0.59,0.05,0.63,0.01,0.1c-0.01-0.25,0-0.5,0.02-0.74
				c-0.06,1.15,0.19-0.47,0.29-0.76c-0.27,0.8,0.35-0.7,0.44-0.86c0.27-0.5,0.57-0.99,0.86-1.49c1.21-2.02,0.52-5.03-1.61-6.16
				C608.87,610.99,606.18,611.59,604.89,613.75L604.89,613.75z"/>
		</g>
	</g>
</g>
</svg>
